<?xml version="1.0" encoding="utf-8"?>
<!-- Generator: Adobe Illustrator 27.2.0, SVG Export Plug-In . SVG Version: 6.00 Build 0)  -->
<svg version="1.1" id="Camada_1" xmlns="http://www.w3.org/2000/svg" xmlns:xlink="http://www.w3.org/1999/xlink" x="0px" y="0px"
	 viewBox="0 0 50 50" style="enable-background:new 0 0 50 50;" xml:space="preserve">
<style type="text/css">
	.st0{fill:#4B2E87;}
	.st1{fill:#F3EEE8;}
	.st2{fill:#EA534A;}
</style>
<g>
	<circle class="st0" cx="25" cy="25" r="25"/>
</g>
<g id="b">
	<g id="c">
		<g>
			<path class="st1" d="M10.2,36c0-1.8,0.3-2.2,1.2-3c0.7-0.6,0.8-1.2,0.8-2.2v-7.1c0-1.5-0.1-2-1.1-2c-1.1-0.1-1.8-0.5-1.8-1.5
				c0-1.4,0.7-2.4,1.7-3.3c0.8-0.7,2-1.2,3-1.2c1.5,0,2.4,0.8,2.4,2c0,0.7,0.1,0.8,0.4,0.8c0.4,0,0.6-0.5,0.9-1
				c0.7-1.1,2-2.1,3.9-2.1c4,0,6.5,3.3,6.5,8.4s-2.2,8.7-7,8.7c-2.5,0-2.6-1.2-3.3-1.2c-0.7,0.1-0.7,0.6-0.7,1.3
				c0,0.4,0.2,0.7,0.9,1.2c1,0.6,1.5,1.2,1.5,2.6c0,1.4-0.7,2.3-2.8,2.4C14.1,38.8,10.2,38.4,10.2,36L10.2,36z M21.9,24.1
				c-0.4-2-1.1-3.3-2.7-3c-1.5,0.3-1.7,1.7-1.5,3.4c0.3,2.4,1,3.2,2.6,3C21.8,27.4,22.3,26.2,21.9,24.1L21.9,24.1z"/>
			<path class="st2" d="M32,11.2c1.4,0,2.6,1,3.6,2.2c0.2,0.3,0.6,0.4,0.8,0.1c1.9-2.3,4.4-1.8,4.4,0.7c0.1,5-7.3,12.2-9.1,6.4
				c-0.8-2.6-2.6-4.3-2.7-6.2C28.9,12.7,30.3,11.2,32,11.2z"/>
		</g>
	</g>
</g>
</svg>
